#!OML:ASF H:\Pregnant\Project 1\Capture day 1\Session 1\femalepreg.ASF
:FULLY-SPECIFIED
:DEGREES
313
root -0.306096 16.1282 -9.95228 19.4426 1.54858 -0.878081
lowerback -9.06472 -3.61104 -10.3439
upperback -5.38273 -4.01071 -0.839342
thorax 0.0447294 -1.8098 4.53032
lowerneck -20.8609 -1.37015 3.39673
upperneck 20.2618 -4.42496 5.69029
head 9.99819 -1.08938 0.801379
rclavicle 3.86636e-014 2.54444e-014
rhumerus -50.4144 -4.09737 -78.1345
rradius 26.7053
rwrist -12.6964
rhand -9.94445 -20.3126
rfingers 7.12502
rthumb 16.0371 -49.6689
lclavicle 3.86636e-014 2.54444e-014
lhumerus -23.9793 -11.6582 79.0478
lradius 44.9893
lwrist 44.985
lhand -23.914 -9.16991
lfingers 7.12502
lthumb 2.56043 20.7945
rfemur -50.3321 11.1169 15.4975
rtibia 55.098
rfoot -12.0505 -13.4597
rtoes -10.5275
lfemur -30.6193 -9.2063 -21.8361
ltibia 24.8016
lfoot -11.038 -0.912062
ltoes -15.6623
314
root -0.303665 16.1301 -10.0208 19.3715 1.41036 -0.927756
lowerback -9.16288 -3.53689 -10.4502
upperback -5.35893 -3.88892 -0.922768
thorax 0.104532 -1.75112 4.50958
lowerneck -20.8573 -1.48691 3.20635
upperneck 20.3491 -4.58991 5.9147
head 10.0426 -1.15012 0.887785
rclavicle -5.53615e-014 -1.74931e-014
rhumerus -50.3364 -3.58399 -78.6805
rradius 27.159
rwrist -12.9804
rhand -10.1612 -20.4998
rfingers 7.12502
rthumb 15.8284 -49.8728
lclavicle -5.53615e-014 -1.74931e-014
lhumerus -24.3701 -11.4871 79.1113
lradius 45.1282
lwrist 45.2093
lhand -23.9908 -9.35597
lfingers 7.12502
lthumb 2.4862 20.6093
rfemur -49.7872 11.1727 15.8067
rtibia 56.1647
rfoot -12.1108 -13.0057
rtoes -10.614
lfemur -30.834 -9.15205 -21.7815
ltibia 24.8509
lfoot -10.8833 -0.883839
ltoes -15.5005
315
root -0.301722 16.1315 -10.0886 19.3174 1.27282 -0.959717
lowerback -9.2795 -3.45986 -10.5648
upperback -5.34706 -3.76065 -1.00848
thorax 0.160916 -1.68855 4.49143
lowerneck -20.8551 -1.60662 2.99114
upperneck 20.4523 -4.76006 6.1675
head 10.0954 -1.21107 0.987679
rclavicle 4.82053e-014 3.33958e-014
rhumerus -50.2693 -3.10466 -79.1904
rradius 27.6313
rwrist -13.2657
rhand -10.4251 -20.7252
rfingers 7.12502
rthumb 15.5742 -50.1181
lclavicle 4.82053e-014 3.33958e-014
lhumerus -24.7732 -11.3629 79.185
lradius 45.1886
lwrist 45.4511
lhand -24.0321 -9.51857
lfingers 7.12502
lthumb 2.44634 20.4471
rfemur -49.2317 11.2131 16.0984
rtibia 57.1947
rfoot -12.1687 -12.5095
rtoes -10.7981
lfemur -31.0531 -9.09403 -21.7423
ltibia 24.8827
lfoot -10.7332 -0.866488
ltoes -15.3294
316
root -0.300079 16.1323 -10.1562 19.2797 1.13458 -0.973652
lowerback -9.42006 -3.37921 -10.6862
upperback -5.34077 -3.6238 -1.09657
thorax 0.223182 -1.62173 4.47485
lowerneck -20.8608 -1.72838 2.76438
upperneck 20.5655 -4.93309 6.42752
head 10.1549 -1.27275 1.09176
rclavicle -6.16232e-015 -2.22639e-014
rhumerus -50.2024 -2.66094 -79.6639
rradius 28.114
rwrist -13.5516
rhand -10.7461 -20.9333
rfingers 7.12502
rthumb 15.265 -50.35
lclavicle -6.16232e-015 -2.22639e-014
lhumerus -25.1722 -11.2853 79.2681
lradius 45.1621
lwrist 45.7099
lhand -24.0385 -9.6437
lfingers 7.12502
lthumb 2.44014 20.3221
rfemur -48.6715 11.2362 16.3717
rtibia 58.1874
rfoot -12.2275 -11.9868
rtoes -11.0727
lfemur -31.2759 -9.03476 -21.7187
ltibia 24.8939
lfoot -10.5848 -0.857855
ltoes -15.1383
317
root -0.298648 16.1328 -10.2229 19.246 0.998908 -0.965646
lowerback -9.56835 -3.2943 -10.8131
upperback -5.3404 -3.47964 -1.19404
thorax 0.281727 -1.55095 4.45246
lowerneck -20.8386 -1.85333 2.53659
upperneck 20.6588 -5.10654 6.68349
head 10.2029 -1.33655 1.19468
rclavicle 1.49089e-015 3.49861e-014
rhumerus -50.1429 -2.25532 -80.1119
rradius 28.6014
rwrist -13.8306
rhand -11.1411 -21.0915
rfingers 7.12502
rthumb 14.8845 -50.5368
lclavicle 1.49089e-015 3.49861e-014
lhumerus -25.5587 -11.2598 79.3502
lradius 45.0285
lwrist 45.9608
lhand -23.987 -9.6523
lfingers 7.12502
lthumb 2.48991 20.3129
rfemur -48.0878 11.2403 16.6249
rtibia 59.1411
rfoot -12.2841 -11.4465
rtoes -11.4026
lfemur -31.4854 -8.98063 -21.7162
ltibia 24.884
lfoot -10.4401 -0.853358
ltoes -14.9275
318
root -0.297636 16.1328 -10.2893 19.2142 0.868043 -0.936296
lowerback -9.73186 -3.20495 -10.9499
upperback -5.33405 -3.32558 -1.29684
thorax 0.353308 -1.476 4.43072
lowerneck -20.8097 -1.98757 2.32348
upperneck 20.7349 -5.28635 6.90029
head 10.2428 -1.40769 1.28038
rclavicle -2.5842e-015 -9.54166e-015
rhumerus -50.0702 -1.88492 -80.5313
rradius 29.093
rwrist -14.1097
rhand -11.5823 -21.2104
rfingers 7.12502
rthumb 14.4595 -50.6866
lclavicle -2.5842e-015 -9.54166e-015
lhumerus -25.9059 -11.2843 79.4371
lradius 44.7781
lwrist 46.2066
lhand -23.8743 -9.65764
lfingers 7.12502
lthumb 2.59878 20.3063
rfemur -47.4814 11.2268 16.8585
rtibia 60.0525
rfoot -12.3305 -10.9024
rtoes -11.7704
lfemur -31.6824 -8.92923 -21.7331
ltibia 24.8536
lfoot -10.2987 -0.858938
ltoes -14.7042
319
root -0.296695 16.1323 -10.3558 19.1952 0.735791 -0.889377
lowerback -9.9026 -3.10892 -11.0805
upperback -5.34054 -3.16243 -1.41029
thorax 0.412753 -1.3958 4.39592
lowerneck -20.7565 -2.12745 2.11279
upperneck 20.8034 -5.47035 7.105
head 10.2758 -1.48292 1.36092
rclavicle -4.23411e-014 -3.65764e-014
rhumerus -50.0075 -1.54958 -80.9287
rradius 29.5821
rwrist -14.372
rhand -12.0677 -21.2723
rfingers 7.12502
rthumb 13.9918 -50.7814
lclavicle -4.23411e-014 -3.65764e-014
lhumerus -26.2367 -11.3603 79.5237
lradius 44.4111
lwrist 46.44
lhand -23.7052 -9.66655
lfingers 7.12502
lthumb 2.76209 20.2953
rfemur -46.8705 11.1964 17.0684
rtibia 60.9176
rfoot -12.3695 -10.3349
rtoes -12.0838
lfemur -31.884 -8.87831 -21.7664
ltibia 24.805
lfoot -10.1557 -0.869717
ltoes -14.4712
320
root -0.295915 16.1311 -10.4222 19.1818 0.601777 -0.825577
lowerback -10.0768 -3.00271 -11.2015
upperback -5.3559 -2.98603 -1.53983
thorax 0.461297 -1.30858 4.34112
lowerneck -20.6872 -2.27181 1.89778
upperneck 20.8686 -5.6618 7.32153
head 10.3065 -1.56105 1.4454
rclavicle 4.51241e-014 6.04305e-014
rhumerus -49.9537 -1.24787 -81.3186
rradius 30.0742
rwrist -14.6294
rhand -12.5936 -21.3334
rfingers 7.12502
rthumb 13.485 -50.8769
lclavicle 4.51241e-014 6.04305e-014
lhumerus -26.545 -11.4972 79.6052
lradius 43.9255
lwrist 46.6529
lhand -23.5127 -9.65627
lfingers 7.12502
lthumb 2.94799 20.3031
rfemur -46.2414 11.152 17.2567
rtibia 61.7301
rfoot -12.396 -9.74611
rtoes -12.3416
lfemur -32.0844 -8.82637 -21.8171
ltibia 24.7434
lfoot -10.0135 -0.883833
ltoes -14.2557
321
root -0.295117 16.1293 -10.4885 19.1723 0.458751 -0.751464
lowerback -10.2562 -2.88136 -11.3004
upperback -5.37907 -2.79066 -1.68945
thorax 0.499793 -1.21183 4.25574
lowerneck -20.6055 -2.42103 1.68652
upperneck 20.9296 -5.86287 7.54529
head 10.3348 -1.64293 1.53052
rclavicle -5.96354e-015 -9.54166e-015
rhumerus -49.9038 -0.9873 -81.7062
rradius 30.5606
rwrist -14.8754
rhand -13.1537 -21.3824
rfingers 7.12502
rthumb 12.945 -50.9608
lclavicle -5.96354e-015 -9.54166e-015
lhumerus -26.8297 -11.701 79.6759
lradius 43.3247
lwrist 46.8405
lhand -23.2945 -9.62491
lfingers 7.12502
lthumb 3.15866 20.3314
rfemur -45.5882 11.1003 17.4276
rtibia 62.4825
rfoot -12.403 -9.12509
rtoes -12.5192
lfemur -32.2826 -8.76726 -21.8811
ltibia 24.6713
lfoot -9.8745 -0.89599
ltoes -14.0715
322
root -0.294088 16.127 -10.554 19.1553 0.300893 -0.669448
lowerback -10.4398 -2.74329 -11.3755
upperback -5.40664 -2.57444 -1.85699
thorax 0.531561 -1.10493 4.14136
lowerneck -20.4977 -2.57628 1.47147
upperneck 20.9826 -6.07214 7.77724
head 10.3571 -1.72896 1.61814
rclavicle -2.98177e-016 3.33958e-014
rhumerus -49.8622 -0.753661 -82.0946
rradius 31.0461
rwrist -15.1074
rhand -13.7301 -21.4364
rfingers 7.12502
rthumb 12.3894 -51.0493
lclavicle -2.98177e-016 3.33958e-014
lhumerus -27.0982 -11.9586 79.7385
lradius 42.6179
lwrist 46.9936
lhand -23.0811 -9.51573
lfingers 7.12502
lthumb 3.36475 20.4375
rfemur -44.8943 11.0492 17.5817
rtibia 63.1669
rfoot -12.3863 -8.47014
rtoes -12.6095
lfemur -32.4616 -8.70407 -21.9578
ltibia 24.5877
lfoot -9.73938 -0.893687
ltoes -13.9198
323
root -0.293225 16.1245 -10.619 19.1371 0.139566 -0.575839
lowerback -10.6258 -2.59495 -11.436
upperback -5.43986 -2.34556 -2.0374
thorax 0.556482 -0.991686 4.00752
lowerneck -20.3756 -2.73542 1.24885
upperneck 21.0345 -6.2859 8.01425
head 10.3781 -1.8176 1.70835
rclavicle 1.98785e-015 -4.6118e-014
rhumerus -49.8203 -0.538029 -82.4826
rradius 31.5204
rwrist -15.325
rhand -14.3039 -21.4851
rfingers 7.12502
rthumb 11.8361 -51.1306
lclavicle 1.98785e-015 -4.6118e-014
lhumerus -27.3495 -12.2556 79.7954
lradius 41.8089
lwrist 47.0959
lhand -22.8888 -9.31394
lfingers 7.12502
lthumb 3.55052 20.6362
rfemur -44.166 10.9904 17.7182
rtibia 63.7781
rfoot -12.3371 -7.77265
rtoes -12.6302
lfemur -32.6297 -8.63255 -22.0498
ltibia 24.4898
lfoot -9.60622 -0.893241
ltoes -13.815
